<svg width="18" height="18" viewBox="0 0 18 18" fill="none" xmlns="http://www.w3.org/2000/svg">
<path d="M12.1764 1.05882V0H5.82344V1.05882H2.64697V18H15.3529V1.05882H12.1764ZM6.88227 1.05882H11.1176V2.11765H6.88227V1.05882ZM14.294 16.9412H3.7058V2.11765H5.82344V3.17647H12.1764V2.11765H14.294V16.9412Z" fill="white"/>
<path d="M9.39148 6.68172L7.89928 4.19472L7.0849 5.82347H5.29443V6.88229H7.73926L7.9837 6.3934L9.66797 9.20052L10.4407 6.88229H12.7062V5.82347H9.67757L9.39148 6.68172Z" fill="white"/>
<path d="M5.29443 10.5882H6.88267V11.647H5.29443V10.5882Z" fill="white"/>
<path d="M7.94092 10.5882H12.7056V11.647H7.94092V10.5882Z" fill="white"/>
<path d="M5.29443 12.7058H6.88267V13.7646H5.29443V12.7058Z" fill="white"/>
<path d="M7.94092 12.7059H12.7056V13.7647H7.94092V12.7059Z" fill="white"/>
<path d="M5.29443 14.8236H6.88267V15.8824H5.29443V14.8236Z" fill="white"/>
<path d="M7.94092 14.8235H12.7056V15.8823H7.94092V14.8235Z" fill="white"/>
</svg>
