<svg width="25" height="24" viewBox="0 0 25 24" fill="none" xmlns="http://www.w3.org/2000/svg">
<path fill-rule="evenodd" clip-rule="evenodd" d="M3.44118 1.5L3.44336 1.5H16.1934L16.1955 1.5C16.6918 1.50144 17.1673 1.69922 17.5182 2.05013C17.8691 2.40104 18.0669 2.87656 18.0684 3.37282L18.0684 3.375V19.4934H16.5684V3.37644C16.5679 3.27676 16.5281 3.18129 16.4576 3.11079C16.3871 3.04031 16.2916 3.0005 16.192 3H3.44474C3.34508 3.0005 3.24963 3.04031 3.17915 3.11079C3.10867 3.18127 3.06886 3.27672 3.06836 3.37638V19.8737C3.06951 20.1721 3.18853 20.4579 3.3995 20.6689C3.61051 20.8799 3.89637 20.9989 4.19475 21H19.5684V22.5H4.19336L4.19112 22.5C3.49616 22.4979 2.83026 22.2209 2.33884 21.7295C1.84743 21.2381 1.57044 20.5722 1.56836 19.8772L1.56836 19.875V3.375L1.56836 3.37282C1.5698 2.87656 1.76758 2.40104 2.11849 2.05013C2.4694 1.69922 2.94492 1.50144 3.44118 1.5Z" fill="#21272A"/>
<path fill-rule="evenodd" clip-rule="evenodd" d="M16.5684 6C16.5684 5.58579 16.9041 5.25 17.3184 5.25H20.6934C21.1906 5.25 21.6676 5.44754 22.0192 5.79917C22.3708 6.1508 22.5684 6.62772 22.5684 7.125V19.5C22.5684 20.2956 22.2523 21.0587 21.6897 21.6213C21.1271 22.1839 20.364 22.5 19.5684 22.5C18.7727 22.5 18.0096 22.1839 17.447 21.6213C16.8844 21.0587 16.5684 20.2956 16.5684 19.5V6ZM18.0684 6.75V19.5C18.0684 19.8978 18.2264 20.2794 18.5077 20.5607C18.789 20.842 19.1705 21 19.5684 21C19.9662 21 20.3477 20.842 20.629 20.5607C20.9103 20.2794 21.0684 19.8978 21.0684 19.5V7.125C21.0684 7.02554 21.0289 6.93016 20.9585 6.85983C20.8882 6.78951 20.7928 6.75 20.6934 6.75H18.0684Z" fill="#21272A"/>
<path fill-rule="evenodd" clip-rule="evenodd" d="M10.5684 6C10.5684 5.58579 10.9041 5.25 11.3184 5.25H14.3184C14.7326 5.25 15.0684 5.58579 15.0684 6C15.0684 6.41421 14.7326 6.75 14.3184 6.75H11.3184C10.9041 6.75 10.5684 6.41421 10.5684 6Z" fill="#21272A"/>
<path fill-rule="evenodd" clip-rule="evenodd" d="M10.5684 9C10.5684 8.58579 10.9041 8.25 11.3184 8.25H14.3184C14.7326 8.25 15.0684 8.58579 15.0684 9C15.0684 9.41421 14.7326 9.75 14.3184 9.75H11.3184C10.9041 9.75 10.5684 9.41421 10.5684 9Z" fill="#21272A"/>
<path fill-rule="evenodd" clip-rule="evenodd" d="M4.56836 12C4.56836 11.5858 4.90415 11.25 5.31836 11.25H14.3184C14.7326 11.25 15.0684 11.5858 15.0684 12C15.0684 12.4142 14.7326 12.75 14.3184 12.75H5.31836C4.90415 12.75 4.56836 12.4142 4.56836 12Z" fill="#21272A"/>
<path fill-rule="evenodd" clip-rule="evenodd" d="M4.56836 15C4.56836 14.5858 4.90415 14.25 5.31836 14.25H14.3184C14.7326 14.25 15.0684 14.5858 15.0684 15C15.0684 15.4142 14.7326 15.75 14.3184 15.75H5.31836C4.90415 15.75 4.56836 15.4142 4.56836 15Z" fill="#21272A"/>
<path fill-rule="evenodd" clip-rule="evenodd" d="M4.56836 18C4.56836 17.5858 4.90415 17.25 5.31836 17.25H14.3184C14.7326 17.25 15.0684 17.5858 15.0684 18C15.0684 18.4142 14.7326 18.75 14.3184 18.75H5.31836C4.90415 18.75 4.56836 18.4142 4.56836 18Z" fill="#21272A"/>
</svg>
