<svg width="104" height="40" viewBox="0 0 104 40" fill="none" xmlns="http://www.w3.org/2000/svg">
<path fill-rule="evenodd" clip-rule="evenodd" d="M0 0.5V24.5H24V0.5H0ZM3.41421 2.5L12 11.0858L20.5858 2.5H3.41421ZM22 3.91421L13.4142 12.5L22 21.0858V3.91421ZM20.5858 22.5L12 13.9142L3.41421 22.5H20.5858ZM2 21.0858L10.5858 12.5L2 3.91421V21.0858Z" fill="#4D5358"/>
<path d="M36.2031 14.0117H31.8203L31.7969 11.5977H35.4766C36.125 11.5977 36.6562 11.5156 37.0703 11.3516C37.4844 11.1797 37.793 10.9336 37.9961 10.6133C38.207 10.2852 38.3125 9.88672 38.3125 9.41797C38.3125 8.88672 38.2109 8.45703 38.0078 8.12891C37.8125 7.80078 37.5039 7.5625 37.082 7.41406C36.668 7.26562 36.1328 7.19141 35.4766 7.19141H33.0391V21.5H29.5234V4.4375H35.4766C36.4688 4.4375 37.3555 4.53125 38.1367 4.71875C38.9258 4.90625 39.5938 5.19141 40.1406 5.57422C40.6875 5.95703 41.1055 6.44141 41.3945 7.02734C41.6836 7.60547 41.8281 8.29297 41.8281 9.08984C41.8281 9.79297 41.668 10.4414 41.3477 11.0352C41.0352 11.6289 40.5391 12.1133 39.8594 12.4883C39.1875 12.8633 38.3086 13.0703 37.2227 13.1094L36.2031 14.0117ZM36.0508 21.5H30.8594L32.2305 18.7578H36.0508C36.668 18.7578 37.1719 18.6602 37.5625 18.4648C37.9531 18.2617 38.2422 17.9883 38.4297 17.6445C38.6172 17.3008 38.7109 16.9062 38.7109 16.4609C38.7109 15.9609 38.625 15.5273 38.4531 15.1602C38.2891 14.793 38.0234 14.5117 37.6562 14.3164C37.2891 14.1133 36.8047 14.0117 36.2031 14.0117H32.8164L32.8398 11.5977H37.0586L37.8672 12.5469C38.9062 12.5312 39.7422 12.7148 40.375 13.0977C41.0156 13.4727 41.4805 13.9609 41.7695 14.5625C42.0664 15.1641 42.2148 15.8086 42.2148 16.4961C42.2148 17.5898 41.9766 18.5117 41.5 19.2617C41.0234 20.0039 40.3242 20.5625 39.4023 20.9375C38.4883 21.3125 37.3711 21.5 36.0508 21.5ZM44.8516 4.4375H51.2148C52.5195 4.4375 53.6406 4.63281 54.5781 5.02344C55.5234 5.41406 56.25 5.99219 56.7578 6.75781C57.2656 7.52344 57.5195 8.46484 57.5195 9.58203C57.5195 10.4961 57.3633 11.2812 57.0508 11.9375C56.7461 12.5859 56.3125 13.1289 55.75 13.5664C55.1953 13.9961 54.543 14.3398 53.793 14.5977L52.6797 15.1836H47.1484L47.125 12.4414H51.2383C51.8555 12.4414 52.3672 12.332 52.7734 12.1133C53.1797 11.8945 53.4844 11.5898 53.6875 11.1992C53.8984 10.8086 54.0039 10.3555 54.0039 9.83984C54.0039 9.29297 53.9023 8.82031 53.6992 8.42188C53.4961 8.02344 53.1875 7.71875 52.7734 7.50781C52.3594 7.29688 51.8398 7.19141 51.2148 7.19141H48.3672V21.5H44.8516V4.4375ZM54.3906 21.5L50.5 13.8945L54.2148 13.8711L58.1523 21.3359V21.5H54.3906ZM69.6484 4.4375H73.1523V15.7109C73.1523 17.0234 72.8711 18.1289 72.3086 19.0273C71.7539 19.9258 70.9844 20.6016 70 21.0547C69.0234 21.5078 67.8984 21.7344 66.625 21.7344C65.3516 21.7344 64.2188 21.5078 63.2266 21.0547C62.2422 20.6016 61.4688 19.9258 60.9062 19.0273C60.3516 18.1289 60.0742 17.0234 60.0742 15.7109V4.4375H63.5898V15.7109C63.5898 16.4766 63.7109 17.1016 63.9531 17.5859C64.1953 18.0703 64.543 18.4258 64.9961 18.6523C65.457 18.8789 66 18.9922 66.625 18.9922C67.2656 18.9922 67.8086 18.8789 68.2539 18.6523C68.707 18.4258 69.0508 18.0703 69.2852 17.5859C69.5273 17.1016 69.6484 16.4766 69.6484 15.7109V4.4375ZM85.9375 15.8398H89.4414C89.3711 16.9883 89.0547 18.0078 88.4922 18.8984C87.9375 19.7891 87.1602 20.4844 86.1602 20.9844C85.168 21.4844 83.9727 21.7344 82.5742 21.7344C81.4805 21.7344 80.5 21.5469 79.6328 21.1719C78.7656 20.7891 78.0234 20.2422 77.4062 19.5312C76.7969 18.8203 76.332 17.9609 76.0117 16.9531C75.6914 15.9453 75.5312 14.8164 75.5312 13.5664V12.3828C75.5312 11.1328 75.6953 10.0039 76.0234 8.99609C76.3594 7.98047 76.8359 7.11719 77.4531 6.40625C78.0781 5.69531 78.8242 5.14844 79.6914 4.76562C80.5586 4.38281 81.5273 4.19141 82.5977 4.19141C84.0195 4.19141 85.2188 4.44922 86.1953 4.96484C87.1797 5.48047 87.9414 6.19141 88.4805 7.09766C89.0273 8.00391 89.3555 9.03516 89.4648 10.1914H85.9492C85.9102 9.50391 85.7734 8.92188 85.5391 8.44531C85.3047 7.96094 84.9492 7.59766 84.4727 7.35547C84.0039 7.10547 83.3789 6.98047 82.5977 6.98047C82.0117 6.98047 81.5 7.08984 81.0625 7.30859C80.625 7.52734 80.2578 7.85938 79.9609 8.30469C79.6641 8.75 79.4414 9.3125 79.293 9.99219C79.1523 10.6641 79.082 11.4531 79.082 12.3594V13.5664C79.082 14.4492 79.1484 15.2266 79.2812 15.8984C79.4141 16.5625 79.6172 17.125 79.8906 17.5859C80.1719 18.0391 80.5312 18.3828 80.9688 18.6172C81.4141 18.8438 81.9492 18.957 82.5742 18.957C83.3086 18.957 83.9141 18.8398 84.3906 18.6055C84.8672 18.3711 85.2305 18.0234 85.4805 17.5625C85.7383 17.1016 85.8906 16.5273 85.9375 15.8398ZM103.199 18.7578V21.5H94.1172V18.7578H103.199ZM95.2656 4.4375V21.5H91.75V4.4375H95.2656ZM102.016 11.3867V14.0586H94.1172V11.3867H102.016ZM103.188 4.4375V7.19141H94.1172V4.4375H103.188Z" fill="#697077"/>
<path d="M47.2988 35.5H45.5176L45.5293 34.5801H47.2988C47.9082 34.5801 48.416 34.4531 48.8223 34.1992C49.2285 33.9414 49.5332 33.582 49.7363 33.1211C49.9434 32.6562 50.0469 32.1133 50.0469 31.4922V30.9707C50.0469 30.4824 49.9883 30.0488 49.8711 29.6699C49.7539 29.2871 49.582 28.9648 49.3555 28.7031C49.1289 28.4375 48.8516 28.2363 48.5234 28.0996C48.1992 27.9629 47.8262 27.8945 47.4043 27.8945H45.4824V26.9688H47.4043C47.9629 26.9688 48.4727 27.0625 48.9336 27.25C49.3945 27.4336 49.791 27.7012 50.123 28.0527C50.459 28.4004 50.7168 28.8223 50.8965 29.3184C51.0762 29.8105 51.166 30.3652 51.166 30.9824V31.4922C51.166 32.1094 51.0762 32.666 50.8965 33.1621C50.7168 33.6543 50.457 34.0742 50.1172 34.4219C49.7812 34.7695 49.375 35.0371 48.8984 35.2246C48.4258 35.4082 47.8926 35.5 47.2988 35.5ZM46.1211 26.9688V35.5H44.9902V26.9688H46.1211ZM56.4395 34.416V31.1523C56.4395 30.9023 56.3887 30.6855 56.2871 30.502C56.1895 30.3145 56.041 30.1699 55.8418 30.0684C55.6426 29.9668 55.3965 29.916 55.1035 29.916C54.8301 29.916 54.5898 29.9629 54.3828 30.0566C54.1797 30.1504 54.0195 30.2734 53.9023 30.4258C53.7891 30.5781 53.7324 30.7422 53.7324 30.918H52.6484C52.6484 30.6914 52.707 30.4668 52.8242 30.2441C52.9414 30.0215 53.1094 29.8203 53.3281 29.6406C53.5508 29.457 53.8164 29.3125 54.125 29.207C54.4375 29.0977 54.7852 29.043 55.168 29.043C55.6289 29.043 56.0352 29.1211 56.3867 29.2773C56.7422 29.4336 57.0195 29.6699 57.2188 29.9863C57.4219 30.2988 57.5234 30.6914 57.5234 31.1641V34.1172C57.5234 34.3281 57.541 34.5527 57.5762 34.791C57.6152 35.0293 57.6719 35.2344 57.7461 35.4062V35.5H56.6152C56.5605 35.375 56.5176 35.209 56.4863 35.002C56.4551 34.791 56.4395 34.5957 56.4395 34.416ZM56.627 31.6562L56.6387 32.418H55.543C55.2344 32.418 54.959 32.4434 54.7168 32.4941C54.4746 32.541 54.2715 32.6133 54.1074 32.7109C53.9434 32.8086 53.8184 32.9316 53.7324 33.0801C53.6465 33.2246 53.6035 33.3945 53.6035 33.5898C53.6035 33.7891 53.6484 33.9707 53.7383 34.1348C53.8281 34.2988 53.9629 34.4297 54.1426 34.5273C54.3262 34.6211 54.5508 34.668 54.8164 34.668C55.1484 34.668 55.4414 34.5977 55.6953 34.457C55.9492 34.3164 56.1504 34.1445 56.2988 33.9414C56.4512 33.7383 56.5332 33.541 56.5449 33.3496L57.0078 33.8711C56.9805 34.0352 56.9062 34.2168 56.7852 34.416C56.6641 34.6152 56.502 34.8066 56.2988 34.9902C56.0996 35.1699 55.8613 35.3203 55.584 35.4414C55.3105 35.5586 55.002 35.6172 54.6582 35.6172C54.2285 35.6172 53.8516 35.5332 53.5273 35.3652C53.207 35.1973 52.957 34.9727 52.7773 34.6914C52.6016 34.4062 52.5137 34.0879 52.5137 33.7363C52.5137 33.3965 52.5801 33.0977 52.7129 32.8398C52.8457 32.5781 53.0371 32.3613 53.2871 32.1895C53.5371 32.0137 53.8379 31.8809 54.1895 31.791C54.541 31.7012 54.9336 31.6562 55.3672 31.6562H56.627ZM61.8828 29.1602V29.9922H58.4551V29.1602H61.8828ZM59.6152 27.6191H60.6992V33.9297C60.6992 34.1445 60.7324 34.3066 60.7988 34.416C60.8652 34.5254 60.9512 34.5977 61.0566 34.6328C61.1621 34.668 61.2754 34.6855 61.3965 34.6855C61.4863 34.6855 61.5801 34.6777 61.6777 34.6621C61.7793 34.6426 61.8555 34.627 61.9062 34.6152L61.9121 35.5C61.8262 35.5273 61.7129 35.5527 61.5723 35.5762C61.4355 35.6035 61.2695 35.6172 61.0742 35.6172C60.8086 35.6172 60.5645 35.5645 60.3418 35.459C60.1191 35.3535 59.9414 35.1777 59.8086 34.9316C59.6797 34.6816 59.6152 34.3457 59.6152 33.9238V27.6191ZM66.8926 34.416V31.1523C66.8926 30.9023 66.8418 30.6855 66.7402 30.502C66.6426 30.3145 66.4941 30.1699 66.2949 30.0684C66.0957 29.9668 65.8496 29.916 65.5566 29.916C65.2832 29.916 65.043 29.9629 64.8359 30.0566C64.6328 30.1504 64.4727 30.2734 64.3555 30.4258C64.2422 30.5781 64.1855 30.7422 64.1855 30.918H63.1016C63.1016 30.6914 63.1602 30.4668 63.2773 30.2441C63.3945 30.0215 63.5625 29.8203 63.7812 29.6406C64.0039 29.457 64.2695 29.3125 64.5781 29.207C64.8906 29.0977 65.2383 29.043 65.6211 29.043C66.082 29.043 66.4883 29.1211 66.8398 29.2773C67.1953 29.4336 67.4727 29.6699 67.6719 29.9863C67.875 30.2988 67.9766 30.6914 67.9766 31.1641V34.1172C67.9766 34.3281 67.9941 34.5527 68.0293 34.791C68.0684 35.0293 68.125 35.2344 68.1992 35.4062V35.5H67.0684C67.0137 35.375 66.9707 35.209 66.9395 35.002C66.9082 34.791 66.8926 34.5957 66.8926 34.416ZM67.0801 31.6562L67.0918 32.418H65.9961C65.6875 32.418 65.4121 32.4434 65.1699 32.4941C64.9277 32.541 64.7246 32.6133 64.5605 32.7109C64.3965 32.8086 64.2715 32.9316 64.1855 33.0801C64.0996 33.2246 64.0566 33.3945 64.0566 33.5898C64.0566 33.7891 64.1016 33.9707 64.1914 34.1348C64.2812 34.2988 64.416 34.4297 64.5957 34.5273C64.7793 34.6211 65.0039 34.668 65.2695 34.668C65.6016 34.668 65.8945 34.5977 66.1484 34.457C66.4023 34.3164 66.6035 34.1445 66.752 33.9414C66.9043 33.7383 66.9863 33.541 66.998 33.3496L67.4609 33.8711C67.4336 34.0352 67.3594 34.2168 67.2383 34.416C67.1172 34.6152 66.9551 34.8066 66.752 34.9902C66.5527 35.1699 66.3145 35.3203 66.0371 35.4414C65.7637 35.5586 65.4551 35.6172 65.1113 35.6172C64.6816 35.6172 64.3047 35.5332 63.9805 35.3652C63.6602 35.1973 63.4102 34.9727 63.2305 34.6914C63.0547 34.4062 62.9668 34.0879 62.9668 33.7363C62.9668 33.3965 63.0332 33.0977 63.166 32.8398C63.2988 32.5781 63.4902 32.3613 63.7402 32.1895C63.9902 32.0137 64.291 31.8809 64.6426 31.791C64.9941 31.7012 65.3867 31.6562 65.8203 31.6562H67.0801ZM75.9688 32.1543H73.6895V31.2344H75.9688C76.4102 31.2344 76.7676 31.1641 77.041 31.0234C77.3145 30.8828 77.5137 30.6875 77.6387 30.4375C77.7676 30.1875 77.832 29.9023 77.832 29.582C77.832 29.2891 77.7676 29.0137 77.6387 28.7559C77.5137 28.498 77.3145 28.291 77.041 28.1348C76.7676 27.9746 76.4102 27.8945 75.9688 27.8945H73.9531V35.5H72.8223V26.9688H75.9688C76.6133 26.9688 77.1582 27.0801 77.6035 27.3027C78.0488 27.5254 78.3867 27.834 78.6172 28.2285C78.8477 28.6191 78.9629 29.0664 78.9629 29.5703C78.9629 30.1172 78.8477 30.584 78.6172 30.9707C78.3867 31.3574 78.0488 31.6523 77.6035 31.8555C77.1582 32.0547 76.6133 32.1543 75.9688 32.1543ZM79.8594 32.4004V32.2656C79.8594 31.8086 79.9258 31.3848 80.0586 30.9941C80.1914 30.5996 80.3828 30.2578 80.6328 29.9688C80.8828 29.6758 81.1855 29.4492 81.541 29.2891C81.8965 29.125 82.2949 29.043 82.7363 29.043C83.1816 29.043 83.582 29.125 83.9375 29.2891C84.2969 29.4492 84.6016 29.6758 84.8516 29.9688C85.1055 30.2578 85.2988 30.5996 85.4316 30.9941C85.5645 31.3848 85.6309 31.8086 85.6309 32.2656V32.4004C85.6309 32.8574 85.5645 33.2812 85.4316 33.6719C85.2988 34.0625 85.1055 34.4043 84.8516 34.6973C84.6016 34.9863 84.2988 35.2129 83.9434 35.377C83.5918 35.5371 83.1934 35.6172 82.748 35.6172C82.3027 35.6172 81.9023 35.5371 81.5469 35.377C81.1914 35.2129 80.8867 34.9863 80.6328 34.6973C80.3828 34.4043 80.1914 34.0625 80.0586 33.6719C79.9258 33.2812 79.8594 32.8574 79.8594 32.4004ZM80.9434 32.2656V32.4004C80.9434 32.7168 80.9805 33.0156 81.0547 33.2969C81.1289 33.5742 81.2402 33.8203 81.3887 34.0352C81.541 34.25 81.7305 34.4199 81.957 34.5449C82.1836 34.666 82.4473 34.7266 82.748 34.7266C83.0449 34.7266 83.3047 34.666 83.5273 34.5449C83.7539 34.4199 83.9414 34.25 84.0898 34.0352C84.2383 33.8203 84.3496 33.5742 84.4238 33.2969C84.502 33.0156 84.541 32.7168 84.541 32.4004V32.2656C84.541 31.9531 84.502 31.6582 84.4238 31.3809C84.3496 31.0996 84.2363 30.8516 84.084 30.6367C83.9355 30.418 83.748 30.2461 83.5215 30.1211C83.2988 29.9961 83.0371 29.9336 82.7363 29.9336C82.4395 29.9336 82.1777 29.9961 81.9512 30.1211C81.7285 30.2461 81.541 30.418 81.3887 30.6367C81.2402 30.8516 81.1289 31.0996 81.0547 31.3809C80.9805 31.6582 80.9434 31.9531 80.9434 32.2656ZM88.0742 30.1562V35.5H86.9902V29.1602H88.0449L88.0742 30.1562ZM90.0547 29.125L90.0488 30.1328C89.959 30.1133 89.873 30.1016 89.791 30.0977C89.7129 30.0898 89.623 30.0859 89.5215 30.0859C89.2715 30.0859 89.0508 30.125 88.8594 30.2031C88.668 30.2812 88.5059 30.3906 88.373 30.5312C88.2402 30.6719 88.1348 30.8398 88.0566 31.0352C87.9824 31.2266 87.9336 31.4375 87.9102 31.668L87.6055 31.8438C87.6055 31.4609 87.6426 31.1016 87.7168 30.7656C87.7949 30.4297 87.9141 30.1328 88.0742 29.875C88.2344 29.6133 88.4375 29.4102 88.6836 29.2656C88.9336 29.1172 89.2305 29.043 89.5742 29.043C89.6523 29.043 89.7422 29.0527 89.8438 29.0723C89.9453 29.0879 90.0156 29.1055 90.0547 29.125ZM94.0039 29.1602V29.9922H90.5762V29.1602H94.0039ZM91.7363 27.6191H92.8203V33.9297C92.8203 34.1445 92.8535 34.3066 92.9199 34.416C92.9863 34.5254 93.0723 34.5977 93.1777 34.6328C93.2832 34.668 93.3965 34.6855 93.5176 34.6855C93.6074 34.6855 93.7012 34.6777 93.7988 34.6621C93.9004 34.6426 93.9766 34.627 94.0273 34.6152L94.0332 35.5C93.9473 35.5273 93.834 35.5527 93.6934 35.5762C93.5566 35.6035 93.3906 35.6172 93.1953 35.6172C92.9297 35.6172 92.6855 35.5645 92.4629 35.459C92.2402 35.3535 92.0625 35.1777 91.9297 34.9316C91.8008 34.6816 91.7363 34.3457 91.7363 33.9238V27.6191ZM99.0137 34.416V31.1523C99.0137 30.9023 98.9629 30.6855 98.8613 30.502C98.7637 30.3145 98.6152 30.1699 98.416 30.0684C98.2168 29.9668 97.9707 29.916 97.6777 29.916C97.4043 29.916 97.1641 29.9629 96.957 30.0566C96.7539 30.1504 96.5938 30.2734 96.4766 30.4258C96.3633 30.5781 96.3066 30.7422 96.3066 30.918H95.2227C95.2227 30.6914 95.2812 30.4668 95.3984 30.2441C95.5156 30.0215 95.6836 29.8203 95.9023 29.6406C96.125 29.457 96.3906 29.3125 96.6992 29.207C97.0117 29.0977 97.3594 29.043 97.7422 29.043C98.2031 29.043 98.6094 29.1211 98.9609 29.2773C99.3164 29.4336 99.5938 29.6699 99.793 29.9863C99.9961 30.2988 100.098 30.6914 100.098 31.1641V34.1172C100.098 34.3281 100.115 34.5527 100.15 34.791C100.189 35.0293 100.246 35.2344 100.32 35.4062V35.5H99.1895C99.1348 35.375 99.0918 35.209 99.0605 35.002C99.0293 34.791 99.0137 34.5957 99.0137 34.416ZM99.2012 31.6562L99.2129 32.418H98.1172C97.8086 32.418 97.5332 32.4434 97.291 32.4941C97.0488 32.541 96.8457 32.6133 96.6816 32.7109C96.5176 32.8086 96.3926 32.9316 96.3066 33.0801C96.2207 33.2246 96.1777 33.3945 96.1777 33.5898C96.1777 33.7891 96.2227 33.9707 96.3125 34.1348C96.4023 34.2988 96.5371 34.4297 96.7168 34.5273C96.9004 34.6211 97.125 34.668 97.3906 34.668C97.7227 34.668 98.0156 34.5977 98.2695 34.457C98.5234 34.3164 98.7246 34.1445 98.873 33.9414C99.0254 33.7383 99.1074 33.541 99.1191 33.3496L99.582 33.8711C99.5547 34.0352 99.4805 34.2168 99.3594 34.416C99.2383 34.6152 99.0762 34.8066 98.873 34.9902C98.6738 35.1699 98.4355 35.3203 98.1582 35.4414C97.8848 35.5586 97.5762 35.6172 97.2324 35.6172C96.8027 35.6172 96.4258 35.5332 96.1016 35.3652C95.7812 35.1973 95.5312 34.9727 95.3516 34.6914C95.1758 34.4062 95.0879 34.0879 95.0879 33.7363C95.0879 33.3965 95.1543 33.0977 95.2871 32.8398C95.4199 32.5781 95.6113 32.3613 95.8613 32.1895C96.1113 32.0137 96.4121 31.8809 96.7637 31.791C97.1152 31.7012 97.5078 31.6562 97.9414 31.6562H99.2012ZM102.98 26.5V35.5H101.891V26.5H102.98Z" fill="#697077"/>
</svg>
