<svg width="184" height="49" viewBox="0 0 184 49" fill="none" xmlns="http://www.w3.org/2000/svg">
<path d="M16.5157 0H13.0266V3.48916H16.5157V0Z" fill="white"/>
<path d="M11.1465 4.84509H9.01422V6.97774H11.1465V4.84509Z" fill="white"/>
<path d="M22.4101 6.16371H25.1994V1.97803H18.221V8.95436H22.4101V6.16371Z" fill="#F25B55"/>
<path d="M23.3406 7.09448V14.3438H27.1176V17.7545H34V7.09448H23.3406Z" fill="white"/>
<path d="M7.77401 14.3437H13.0267V8.52917H0V21.5547H7.77401V14.3437Z" fill="#01A99D"/>
<path d="M24.9685 16.4934H9.92383V31.5386H24.9685V16.4934Z" fill="#7B72ED"/>
<path d="M46.4675 27V2.17325H56.1451C57.3808 2.17325 58.4501 2.26236 59.3532 2.44059C60.2562 2.60693 61.0641 2.94556 61.777 3.45647C63.2028 4.46641 63.9157 6.02885 63.9157 8.14379C63.9157 9.59335 63.5771 10.835 62.8998 11.8687C62.2345 12.9024 61.3196 13.6391 60.1552 14.0787C61.474 14.447 62.5196 15.1124 63.2919 16.0748C64.0761 17.0372 64.4682 18.267 64.4682 19.7641C64.4682 22.176 63.8385 23.9702 62.579 25.1465C61.878 25.7762 61.0047 26.2455 59.9591 26.5544C58.9254 26.8515 57.7135 27 56.3233 27H46.4675ZM49.9429 23.8989H57.7491C58.6759 23.8989 59.4185 23.6791 59.9769 23.2395C60.5354 22.7998 60.8146 22.1166 60.8146 21.1899V18.1957C60.8146 17.364 60.5591 16.7461 60.0482 16.3421C59.5373 15.9263 58.8482 15.7184 57.9808 15.7184H49.9429V23.8989ZM49.9429 12.6172H57.5709C58.4977 12.6172 59.1809 12.3737 59.6205 11.8865C60.0601 11.3994 60.2799 10.7696 60.2799 9.99733V7.76952C60.2799 6.11796 59.3769 5.28625 57.5709 5.27437H49.9429V12.6172ZM70.1358 27V2.17325H79.4926C80.7877 2.17325 81.9283 2.32177 82.9145 2.61881C83.9126 2.91585 84.7383 3.36736 85.3918 3.97332C86.0453 4.57929 86.5206 5.32783 86.8176 6.21896C87.1147 7.0982 87.2632 8.12597 87.2632 9.30225C87.2632 10.3954 87.1206 11.3875 86.8355 12.2786C86.5622 13.1579 86.1107 13.9183 85.4809 14.5599C84.9938 15.047 84.4235 15.451 83.77 15.7718C83.1284 16.0807 82.3204 16.2946 81.3461 16.4134L87.4771 27H83.5026L77.6925 16.5204H73.6112V27H70.1358ZM73.6112 13.5618H80.758C81.6848 13.5618 82.3917 13.2826 82.8789 12.7242C83.366 12.1657 83.6096 11.5004 83.6096 10.7281V7.98339C83.6096 7.12791 83.3541 6.46253 82.8432 5.98727C82.3323 5.512 81.6372 5.27437 80.758 5.27437H73.6112V13.5618ZM92.6634 18.16V2.17325H96.1388V18.4274C96.1388 20.3284 96.6438 21.8196 97.6537 22.9008C98.6637 23.9821 100.113 24.5227 102.002 24.5227C103.903 24.5227 105.365 23.9821 106.387 22.9008C107.409 21.8077 107.919 20.3166 107.919 18.4274V2.17325H111.359V18.16C111.359 19.6215 111.139 20.9344 110.7 22.0988C110.26 23.2513 109.63 24.2316 108.811 25.0395C108.003 25.8356 107.016 26.4534 105.852 26.8931C104.7 27.3327 103.416 27.5525 102.002 27.5525C100.588 27.5525 99.3053 27.3327 98.1527 26.8931C97.0002 26.4534 96.014 25.8356 95.1942 25.0395C94.3863 24.2316 93.7625 23.2513 93.3229 22.0988C92.8832 20.9344 92.6634 19.6215 92.6634 18.16ZM116.706 14.8094C116.706 12.7895 116.914 10.9657 117.33 9.3379C117.746 7.71011 118.375 6.32589 119.219 5.18525C120.074 4.03273 121.144 3.15349 122.427 2.54752C123.722 1.94156 125.231 1.63857 126.954 1.63857C128.142 1.63857 129.253 1.8168 130.287 2.17325C131.332 2.51782 132.241 3.02279 133.014 3.68816C133.798 4.34165 134.427 5.13773 134.903 6.07638C135.378 7.00315 135.651 8.05468 135.723 9.23096H132.247C132.081 7.76952 131.511 6.6467 130.536 5.86251C129.562 5.06644 128.261 4.6684 126.633 4.6684C125.754 4.6684 124.94 4.82286 124.191 5.13179C123.455 5.42883 122.813 5.84469 122.267 6.37936C121.72 6.91404 121.292 7.55565 120.983 8.30419C120.686 9.04085 120.538 9.86069 120.538 10.7637V18.4274C120.538 19.3066 120.698 20.1146 121.019 20.8512C121.352 21.5879 121.803 22.2355 122.374 22.7939C122.956 23.3404 123.627 23.7682 124.387 24.0771C125.16 24.3742 125.98 24.5227 126.847 24.5227C128.499 24.5227 129.835 24.1543 130.857 23.4177C131.891 22.6691 132.491 21.4513 132.657 19.7641H136.115C136.043 20.9285 135.758 21.9978 135.259 22.9721C134.76 23.9345 134.101 24.7484 133.281 25.4138C132.473 26.0792 131.516 26.602 130.411 26.9822C129.318 27.3624 128.142 27.5525 126.883 27.5525C125.231 27.5525 123.77 27.2555 122.498 26.6614C121.239 26.0554 120.181 25.194 119.326 24.0771C118.482 22.9602 117.835 21.6235 117.383 20.067C116.932 18.5105 116.706 16.758 116.706 14.8094ZM141.248 27V2.17325H157.716V5.27437H144.723V12.7955H156.04V15.8966H144.723V23.8989H157.716V27H141.248Z" fill="white"/>
<path d="M46.3881 44V34.5802H49.4379C50.858 34.5802 51.8858 34.9702 52.5215 35.7501C53.1616 36.53 53.4817 37.7111 53.4817 39.2935C53.4817 40.8714 53.1616 42.0502 52.5215 42.8301C51.8858 43.61 50.858 44 49.4379 44H46.3881ZM47.7068 42.8234H49.4379C50.326 42.8234 50.9797 42.6385 51.3989 42.2689C51.8182 41.8992 52.0278 41.3672 52.0278 40.673V37.9072C52.0278 37.213 51.8182 36.681 51.3989 36.3114C50.9797 35.9417 50.326 35.7569 49.4379 35.7569H47.7068V42.8234ZM57.2188 44L60.4782 34.5802H61.9456L65.2117 44H63.8255L63.0546 41.6738H59.3556L58.578 44H57.2188ZM59.7005 40.5918H62.7029L61.2355 36.0476H61.1814L59.7005 40.5918ZM68.3537 35.7569V34.5802H75.2917V35.7569H72.4786V44H71.1668V35.7569H68.3537ZM78.4337 44L81.6931 34.5802H83.1605L86.4267 44H85.0404L84.2695 41.6738H80.5706L79.7929 44H78.4337ZM80.9155 40.5918H83.9179L82.4505 36.0476H82.3964L80.9155 40.5918ZM96.653 44V34.5802H100.217C100.78 34.5802 101.238 34.6343 101.589 34.7425C101.946 34.8462 102.25 35.0288 102.502 35.2903C102.741 35.5382 102.91 35.8493 103.009 36.2235C103.113 36.5976 103.165 37.0056 103.165 37.4474C103.165 37.8802 103.102 38.2904 102.976 38.6781C102.854 39.0613 102.658 39.3859 102.387 39.6519C101.869 40.1613 101.15 40.416 100.23 40.416H97.9716V44H96.653ZM97.9716 39.2326H100.731C101.046 39.2326 101.299 39.1312 101.488 38.9283C101.682 38.7255 101.779 38.4685 101.779 38.1574V36.7847C101.779 36.4692 101.686 36.2189 101.502 36.0341C101.317 35.8493 101.06 35.7569 100.731 35.7569H97.9716V39.2326ZM107.064 39.2935C107.064 38.5542 107.143 37.8825 107.301 37.2784C107.459 36.6743 107.7 36.1581 108.025 35.7298C108.354 35.297 108.771 34.9634 109.276 34.729C109.785 34.4946 110.396 34.3774 111.108 34.3774C111.82 34.3774 112.429 34.4946 112.934 34.729C113.443 34.9634 113.86 35.297 114.185 35.7298C114.514 36.1581 114.758 36.6743 114.915 37.2784C115.073 37.8825 115.152 38.5542 115.152 39.2935C115.152 40.0328 115.073 40.7045 114.915 41.3086C114.758 41.9127 114.514 42.4289 114.185 42.8572C113.86 43.2855 113.443 43.6191 112.934 43.858C112.429 44.0924 111.82 44.2096 111.108 44.2096C110.396 44.2096 109.785 44.0924 109.276 43.858C108.771 43.6191 108.354 43.2855 108.025 42.8572C107.7 42.4289 107.459 41.9127 107.301 41.3086C107.143 40.7045 107.064 40.0328 107.064 39.2935ZM108.518 40.7474C108.518 41.108 108.584 41.4304 108.714 41.7144C108.85 41.9939 109.034 42.2351 109.269 42.4379C109.508 42.6408 109.783 42.7963 110.094 42.9045C110.409 43.0082 110.748 43.0601 111.108 43.0601C111.469 43.0601 111.805 43.0082 112.116 42.9045C112.431 42.7963 112.706 42.6408 112.941 42.4379C113.18 42.2351 113.365 41.9939 113.495 41.7144C113.63 41.4304 113.698 41.108 113.698 40.7474V37.8396C113.698 37.479 113.63 37.1589 113.495 36.8794C113.365 36.5954 113.18 36.3519 112.941 36.1491C112.706 35.9462 112.431 35.7929 112.116 35.6892C111.805 35.581 111.469 35.5269 111.108 35.5269C110.748 35.5269 110.409 35.581 110.094 35.6892C109.783 35.7929 109.508 35.9462 109.269 36.1491C109.034 36.3519 108.85 36.5954 108.714 36.8794C108.584 37.1589 108.518 37.479 108.518 37.8396V40.7474ZM119.761 44V34.5802H123.312C123.803 34.5802 124.236 34.6366 124.61 34.7493C124.989 34.862 125.302 35.0333 125.55 35.2632C125.798 35.4931 125.978 35.7772 126.091 36.1153C126.204 36.4489 126.26 36.8388 126.26 37.2851C126.26 37.6999 126.206 38.0763 126.098 38.4144C125.994 38.748 125.823 39.0365 125.584 39.28C125.399 39.4648 125.182 39.6181 124.934 39.7398C124.691 39.857 124.384 39.9382 124.015 39.9832L126.341 44H124.833L122.629 40.0238H121.08V44H119.761ZM121.08 38.9013H123.792C124.143 38.9013 124.412 38.7954 124.596 38.5835C124.781 38.3716 124.874 38.1191 124.874 37.8261V36.7847C124.874 36.4601 124.777 36.2077 124.583 36.0274C124.389 35.847 124.125 35.7569 123.792 35.7569H121.08V38.9013ZM129.889 35.7569V34.5802H136.827V35.7569H134.014V44H132.702V35.7569H129.889ZM139.969 44L143.228 34.5802H144.696L147.962 44H146.575L145.805 41.6738H142.106L141.328 44H139.969ZM142.45 40.5918H145.453L143.986 36.0476H143.931L142.45 40.5918ZM152.098 44V34.5802H153.416V42.8234H157.683V44H152.098Z" fill="#9A9A9A"/>
</svg>
