<svg width="24" height="24" viewBox="0 0 24 24" fill="none" xmlns="http://www.w3.org/2000/svg">
<path d="M6 4C5.46957 4 4.96086 4.21071 4.58579 4.58579C4.21071 4.96086 4 5.46957 4 6V18C4 18.5304 4.21071 19.0391 4.58579 19.4142C4.96086 19.7893 5.46957 20 6 20H18C18.5304 20 19.0391 19.7893 19.4142 19.4142C19.7893 19.0391 20 18.5304 20 18V6C20 5.46957 19.7893 4.96086 19.4142 4.58579C19.0391 4.21071 18.5304 4 18 4H6ZM6 2H18C19.0609 2 20.0783 2.42143 20.8284 3.17157C21.5786 3.92172 22 4.93913 22 6V18C22 19.0609 21.5786 20.0783 20.8284 20.8284C20.0783 21.5786 19.0609 22 18 22H6C4.93913 22 3.92172 21.5786 3.17157 20.8284C2.42143 20.0783 2 19.0609 2 18V6C2 4.93913 2.42143 3.92172 3.17157 3.17157C3.92172 2.42143 4.93913 2 6 2V2Z" fill="#0F62FE"/>
<path d="M13.8279 11.5859L9.87788 15.5359C9.78497 15.6287 9.67468 15.7024 9.55332 15.7526C9.43195 15.8028 9.30188 15.8287 9.17053 15.8286C9.03918 15.8286 8.90913 15.8026 8.78779 15.7523C8.66646 15.702 8.55623 15.6283 8.46338 15.5354C8.37054 15.4425 8.2969 15.3322 8.24668 15.2108C8.19646 15.0895 8.17063 14.9594 8.17068 14.828C8.17077 14.5628 8.27624 14.3084 8.46388 14.1209L12.4139 10.1709H8.82788C8.56266 10.1709 8.30831 10.0655 8.12077 9.87801C7.93324 9.69047 7.82788 9.43612 7.82788 9.1709C7.82788 8.90569 7.93324 8.65133 8.12077 8.4638C8.30831 8.27626 8.56266 8.1709 8.82788 8.1709H14.8279C14.9593 8.17051 15.0895 8.1961 15.211 8.24622C15.3325 8.29633 15.4429 8.36998 15.5359 8.46291C15.6288 8.55585 15.7025 8.66625 15.7526 8.78775C15.8027 8.90926 15.8283 9.03947 15.8279 9.1709V15.1709C15.8279 15.4361 15.7225 15.6905 15.535 15.878C15.3475 16.0655 15.0931 16.1709 14.8279 16.1709C14.5627 16.1709 14.3083 16.0655 14.1208 15.878C13.9332 15.6905 13.8279 15.4361 13.8279 15.1709V11.5869V11.5859Z" fill="#0F62FE"/>
</svg>
