<svg width="18" height="18" viewBox="0 0 18 18" fill="none" xmlns="http://www.w3.org/2000/svg">
<g clip-path="url(#clip0_2069_813)">
<path d="M14.2867 13.584L7.6735 17.4021C7.50967 17.4967 7.30778 17.4967 7.14394 17.4021L0.264767 13.4304C0.100928 13.3358 0 13.161 0 12.9718V5.02844C0 4.83924 0.100928 4.66444 0.264767 4.56984L7.14394 0.598154C7.30778 0.503557 7.50967 0.503557 7.6735 0.598154L14.2867 4.4163L17.2038 2.7174C17.4565 2.57019 17.7807 2.65579 17.9279 2.90849C18.0752 3.16119 17.9896 3.48542 17.7369 3.63259L14.8175 5.33283V12.6674L17.7369 14.3676C17.9896 14.5149 18.0752 14.839 17.9279 15.0918C17.7807 15.3445 17.4565 15.43 17.2038 15.2828L14.2867 13.584ZM7.4087 1.66822L1.05909 5.33417V12.6661L7.4087 16.332L13.7583 12.6661V5.33417L7.4087 1.66822ZM11.3804 6.35233C11.3804 6.05986 11.6175 5.82277 11.91 5.82277C12.2024 5.82277 12.4395 6.05986 12.4395 6.35233V11.6479C12.4395 11.9404 12.2024 12.1775 11.91 12.1775C11.6175 12.1775 11.3804 11.9404 11.3804 11.6479V6.35233ZM7.67347 13.8371C7.92677 13.9834 8.01352 14.3072 7.8673 14.5605C7.72105 14.8138 7.3972 14.9006 7.1439 14.7543L2.5578 12.1065C2.3045 11.9603 2.21774 11.6364 2.36397 11.3831C2.51022 11.1298 2.83406 11.0431 3.08736 11.1893L7.67347 13.8371ZM3.08736 6.81093C2.83406 6.95719 2.51022 6.8704 2.36397 6.6171C2.21771 6.3638 2.3045 6.03995 2.5578 5.8937L7.1439 3.24591C7.3972 3.09965 7.72105 3.18644 7.8673 3.43974C8.01356 3.69304 7.92677 4.01689 7.67347 4.16314L3.08736 6.81093Z" fill="black"/>
</g>
<defs>
<clipPath id="clip0_2069_813">
<rect width="18" height="18" fill="white"/>
</clipPath>
</defs>
</svg>
