<svg width="48" height="49" viewBox="0 0 48 49" fill="none" xmlns="http://www.w3.org/2000/svg">
<g clip-path="url(#clip0_3112_96462)">
<path d="M40 16.5H8C6.89543 16.5 6 17.3954 6 18.5V22.5C6 23.6046 6.89543 24.5 8 24.5H40C41.1046 24.5 42 23.6046 42 22.5V18.5C42 17.3954 41.1046 16.5 40 16.5Z" stroke="#21272A" stroke-width="2" stroke-linecap="round" stroke-linejoin="round"/>
<path d="M24 16.5V42.5" stroke="#21272A" stroke-width="2" stroke-linecap="round" stroke-linejoin="round"/>
<path d="M38 24.5V38.5C38 39.5609 37.5786 40.5783 36.8284 41.3284C36.0783 42.0786 35.0609 42.5 34 42.5H14C12.9391 42.5 11.9217 42.0786 11.1716 41.3284C10.4214 40.5783 10 39.5609 10 38.5V24.5" stroke="#21272A" stroke-width="2" stroke-linecap="round" stroke-linejoin="round"/>
<path d="M15 16.4999C13.6739 16.4999 12.4021 15.9731 11.4645 15.0354C10.5268 14.0977 10 12.826 10 11.4999C10 10.1738 10.5268 8.90205 11.4645 7.96436C12.4021 7.02668 13.6739 6.4999 15 6.4999C16.9294 6.46628 18.8201 7.40242 20.4255 9.18622C22.0309 10.97 23.2766 13.5187 24 16.4999C24.7234 13.5187 25.9691 10.97 27.5745 9.18622C29.1799 7.40242 31.0706 6.46628 33 6.4999C34.3261 6.4999 35.5979 7.02668 36.5355 7.96436C37.4732 8.90205 38 10.1738 38 11.4999C38 12.826 37.4732 14.0977 36.5355 15.0354C35.5979 15.9731 34.3261 16.4999 33 16.4999" stroke="#21272A" stroke-width="2" stroke-linecap="round" stroke-linejoin="round"/>
</g>
<defs>
<clipPath id="clip0_3112_96462">
<rect width="48" height="48" fill="white" transform="translate(0 0.5)"/>
</clipPath>
</defs>
</svg>
