<svg width="18" height="18" viewBox="0 0 18 18" fill="none" xmlns="http://www.w3.org/2000/svg">
<path d="M15.7886 8.51832L15.7997 0H2.20343L2.19232 8.51832H1.34766V18H16.6523V8.51832H15.7886ZM14.7436 1.05469L14.7332 9.09074L11.2205 11.4057V10.0296C12.4528 9.27805 13.2774 7.92098 13.2774 6.37499C13.2774 4.01646 11.3586 2.09767 9.00001 2.09767C6.64148 2.09767 4.72269 4.0165 4.72269 6.37499C4.72269 7.92102 5.54717 9.27802 6.77954 10.0296V11.405L3.24627 9.07731L3.25675 1.05469H14.7436ZM8.99998 13.0131L7.8342 13.5959V10.4908C8.20495 10.596 8.59599 10.6523 8.99998 10.6523C9.40396 10.6523 9.79503 10.596 10.1658 10.4908V13.5959L8.99998 13.0131ZM5.77734 6.37499C5.77734 4.59802 7.223 3.15236 8.99998 3.15236C10.7769 3.15236 12.2226 4.59805 12.2226 6.37499C12.2226 8.15193 10.7769 9.59766 8.99998 9.59766C7.223 9.59766 5.77734 8.15196 5.77734 6.37499ZM6.77951 12.6681V15.3025L8.99998 14.1923L11.2205 15.3025V12.6688L15.5976 9.78412V16.9453H2.40238V9.78434L6.77951 12.6681Z" fill="white"/>
<path d="M8.53572 8.07437H9.59044V4.67564H8.03467V5.73033H8.53572V8.07437Z" fill="white"/>
</svg>