<svg width="18" height="18" viewBox="0 0 18 18" fill="none" xmlns="http://www.w3.org/2000/svg">
<path d="M8.9999 0.618752C4.3784 0.618752 0.618652 4.3785 0.618652 9C0.618652 13.6215 4.3784 17.3813 8.9999 17.3813C13.6214 17.3813 17.3812 13.6215 17.3812 9C17.3812 4.3785 13.6214 0.618752 8.9999 0.618752ZM8.9999 16.3688C4.9364 16.3688 1.63115 13.0635 1.63115 9C1.63115 4.93706 4.9364 1.63125 8.9999 1.63125C13.0634 1.63125 16.3687 4.93706 16.3687 9C16.3687 13.0635 13.0634 16.3688 8.9999 16.3688Z" fill="black"/>
<path d="M5.99132 9.27574C6.25232 9.27574 6.47394 9.07549 6.49532 8.81055C6.54426 8.20699 6.79457 7.66305 7.22038 7.2378C7.80876 6.64999 8.64294 6.39067 9.45913 6.54536C9.75894 6.60049 10.0385 6.71355 10.2944 6.86767L9.81632 6.89974C9.53732 6.9183 9.32638 7.15961 9.34494 7.43861C9.36294 7.70636 9.58569 7.91111 9.84951 7.91111C9.86132 7.91111 9.87257 7.91111 9.88438 7.90999L11.6399 7.79242C11.7738 7.78342 11.8987 7.72155 11.987 7.6203C12.0753 7.51905 12.1198 7.38686 12.1113 7.25299L11.9932 5.49686C11.9746 5.21786 11.7299 5.00749 11.4538 5.02605C11.1748 5.04461 10.9638 5.28592 10.9824 5.56492L11.0206 6.13024C10.61 5.8428 10.1448 5.64199 9.64532 5.54974C8.50569 5.33317 7.33007 5.69599 6.50376 6.52174C5.90582 7.11967 5.55426 7.88242 5.48507 8.72899C5.46257 9.00799 5.67013 9.25211 5.94913 9.27461C5.96432 9.27518 5.97782 9.27574 5.99132 9.27574Z" fill="black"/>
<path d="M12.0414 8.7256C11.763 8.70704 11.5222 8.9191 11.5037 9.1981C11.4654 9.80054 11.2078 10.3687 10.7792 10.7962C10.1981 11.3784 9.37124 11.6416 8.56743 11.4931C8.23949 11.4374 7.93462 11.3125 7.65843 11.1376L8.21362 11.1005C8.49262 11.0814 8.70355 10.84 8.68499 10.561C8.66643 10.282 8.42118 10.0762 8.14556 10.0897L6.38999 10.2078C6.11099 10.2269 5.90005 10.4682 5.91862 10.7472L6.03618 12.5028C6.05418 12.77 6.27693 12.9753 6.54074 12.9753C6.55255 12.9753 6.5638 12.9747 6.57562 12.9742C6.85405 12.9556 7.06555 12.7137 7.04699 12.4347L7.01268 11.9257C7.42668 12.2092 7.89299 12.4055 8.39193 12.4904C8.59724 12.527 8.80368 12.5455 9.00899 12.5455C9.93037 12.5455 10.8276 12.1799 11.4952 11.5122C12.0971 10.9098 12.4594 10.111 12.5145 9.26279C12.5319 8.98435 12.3204 8.7436 12.0414 8.7256Z" fill="black"/>
</svg>
