<svg width="18" height="18" viewBox="0 0 18 18" fill="none" xmlns="http://www.w3.org/2000/svg">
<g clip-path="url(#clip0_2069_798)">
<path d="M7.94087 7.41357C7.66504 7.41357 7.40077 7.65612 7.41353 7.94092C7.42633 8.22663 7.64524 8.46826 7.94087 8.46826C8.21671 8.46826 8.48098 8.22572 8.46822 7.94092C8.45542 7.6552 8.2365 7.41357 7.94087 7.41357Z" fill="black"/>
<path d="M10.059 9.53174C9.7832 9.53174 9.51893 9.77428 9.53169 10.0591C9.54449 10.3448 9.76341 10.5864 10.059 10.5864C10.3349 10.5864 10.5991 10.3439 10.5864 10.0591C10.5736 9.77337 10.3547 9.53174 10.059 9.53174Z" fill="black"/>
<path d="M13.2956 5.27931C13.2974 4.98807 13.0628 4.75048 12.7716 4.74869C12.7704 4.74869 12.7693 4.74869 12.7682 4.74869C12.4785 4.74869 12.2427 4.98266 12.2409 5.27273C12.2409 5.27305 12.1656 5.31618 12.0557 5.33313C11.7501 5.3802 11.5253 5.49379 11.3622 5.63473C10.6933 5.16371 9.87837 4.88672 8.99985 4.88672C8.00715 4.88672 7.09544 5.24021 6.38402 5.82795C6.38064 5.81319 6.37766 5.79828 6.37537 5.78359C6.24459 4.93442 5.60112 4.70626 5.27916 4.70425C5.278 4.70425 5.27695 4.70425 5.27579 4.70425C4.9861 4.70425 4.75034 4.93822 4.74851 5.22829C4.74669 5.51953 4.98132 5.75711 5.27255 5.75891C5.27287 5.75891 5.31601 5.83418 5.33295 5.94414C5.38003 6.24969 5.49362 6.47448 5.63456 6.6376C5.16357 7.30655 4.88657 8.12148 4.88657 9C4.88657 9.9927 5.24007 10.9044 5.82781 11.6158C5.81305 11.6192 5.79814 11.6222 5.78344 11.6245C4.93428 11.7553 4.70612 12.3987 4.70411 12.7207C4.70228 13.0119 4.93692 13.2495 5.22815 13.2513H5.23153C5.52121 13.2513 5.75697 13.0173 5.7588 12.7273C5.7588 12.7269 5.83407 12.6838 5.94404 12.6669C6.24958 12.6198 6.47437 12.5062 6.6375 12.3653C7.30641 12.8363 8.12134 13.1133 8.99985 13.1133C9.99256 13.1133 10.9043 12.7598 11.6157 12.172C11.6191 12.1868 11.6221 12.2017 11.6243 12.2164C11.7551 13.0656 12.3986 13.2937 12.7205 13.2957H12.7239C13.0136 13.2957 13.2494 13.0618 13.2512 12.7717C13.253 12.4805 13.0184 12.2429 12.7272 12.2411C12.7268 12.2411 12.6837 12.1658 12.6668 12.0558C12.6197 11.7503 12.5061 11.5255 12.3652 11.3624C12.8361 10.6934 13.1131 9.87852 13.1131 9C13.1131 8.00729 12.7596 7.09558 12.1719 6.38416C12.1867 6.38079 12.2016 6.3778 12.2163 6.37551C13.0655 6.24473 13.2936 5.60127 13.2956 5.27931ZM8.99985 12.0586C7.31334 12.0586 5.94126 10.6865 5.94126 9C5.94126 7.31348 7.31334 5.9414 8.99985 5.9414C10.6864 5.9414 12.0584 7.31348 12.0584 9C12.0584 10.6865 10.6864 12.0586 8.99985 12.0586Z" fill="black"/>
<path d="M17.4727 8.47266H16.9233C16.798 6.55007 15.9899 4.75977 14.6151 3.38491C13.2402 2.01006 11.4499 1.20196 9.52734 1.07673V0.527344C9.52734 0.236109 9.29123 0 9 0C8.70877 0 8.47266 0.236109 8.47266 0.527344V1.07673C6.55007 1.20196 4.75977 2.01006 3.38491 3.38491C2.01006 4.75977 1.20196 6.55007 1.07673 8.47266H0.527344C0.236109 8.47266 0 8.70877 0 9C0 9.29123 0.236109 9.52734 0.527344 9.52734H1.07673C1.20196 11.4499 2.01006 13.2402 3.38491 14.6151C4.75977 15.9899 6.55007 16.798 8.47266 16.9233V17.4727C8.47266 17.7639 8.70877 18 9 18C9.29123 18 9.52734 17.7639 9.52734 17.4727V16.9233C11.4499 16.798 13.2402 15.9899 14.6151 14.6151C15.9899 13.2402 16.798 11.4499 16.9233 9.52734H17.4727C17.7639 9.52734 18 9.29123 18 9C18 8.70877 17.7639 8.47266 17.4727 8.47266ZM15.3545 9.52734H15.8662C15.6092 12.9049 12.9049 15.6092 9.52734 15.8662V15.3545C9.52734 15.0633 9.29123 14.8271 9 14.8271C8.70877 14.8271 8.47266 15.0633 8.47266 15.3545V15.8662C5.09509 15.6092 2.39077 12.9049 2.13377 9.52734H2.64551C2.93674 9.52734 3.17285 9.29123 3.17285 9C3.17285 8.70877 2.93674 8.47266 2.64551 8.47266H2.13377C2.39077 5.09509 5.09509 2.39077 8.47266 2.13377V2.64551C8.47266 2.93674 8.70877 3.17285 9 3.17285C9.29123 3.17285 9.52734 2.93674 9.52734 2.64551V2.13377C12.9049 2.39077 15.6092 5.09509 15.8662 8.47266H15.3545C15.0633 8.47266 14.8271 8.70877 14.8271 9C14.8271 9.29123 15.0633 9.52734 15.3545 9.52734Z" fill="black"/>
</g>
<defs>
<clipPath id="clip0_2069_798">
<rect width="18" height="18" fill="white"/>
</clipPath>
</defs>
</svg>
