<svg width="48" height="49" viewBox="0 0 48 49" fill="none" xmlns="http://www.w3.org/2000/svg">
<path d="M41 24.5C41 33.8888 33.3888 41.5 24 41.5V43.5C34.4934 43.5 43 34.9934 43 24.5H41ZM24 41.5C14.6112 41.5 7 33.8888 7 24.5H5C5 34.9934 13.5066 43.5 24 43.5V41.5ZM7 24.5C7 15.1112 14.6112 7.5 24 7.5V5.5C13.5066 5.5 5 14.0066 5 24.5H7ZM24 7.5C33.3888 7.5 41 15.1112 41 24.5H43C43 14.0066 34.4934 5.5 24 5.5V7.5ZM31 24.5C31 28.366 27.866 31.5 24 31.5V33.5C28.9706 33.5 33 29.4706 33 24.5H31ZM24 31.5C20.134 31.5 17 28.366 17 24.5H15C15 29.4706 19.0294 33.5 24 33.5V31.5ZM17 24.5C17 20.634 20.134 17.5 24 17.5V15.5C19.0294 15.5 15 19.5294 15 24.5H17ZM24 17.5C27.866 17.5 31 20.634 31 24.5H33C33 19.5294 28.9706 15.5 24 15.5V17.5ZM36.0208 11.065L28.9497 18.136L30.364 19.5503L37.435 12.4792L36.0208 11.065ZM28.9497 30.864L36.0208 37.935L37.435 36.5208L30.364 29.4497L28.9497 30.864ZM19.0503 18.136L11.9792 11.065L10.565 12.4792L17.636 19.5503L19.0503 18.136ZM17.636 29.4497L10.565 36.5208L11.9792 37.935L19.0503 30.864L17.636 29.4497Z" fill="#21272A"/>
</svg>
