<svg width="48" height="48" viewBox="0 0 48 48" fill="none" xmlns="http://www.w3.org/2000/svg">
<path d="M41 24C41 33.3888 33.3888 41 24 41V43C34.4934 43 43 34.4934 43 24H41ZM24 41C14.6112 41 7 33.3888 7 24H5C5 34.4934 13.5066 43 24 43V41ZM7 24C7 14.6112 14.6112 7 24 7V5C13.5066 5 5 13.5066 5 24H7ZM24 7C33.3888 7 41 14.6112 41 24H43C43 13.5066 34.4934 5 24 5V7ZM31 24C31 27.866 27.866 31 24 31V33C28.9706 33 33 28.9706 33 24H31ZM24 31C20.134 31 17 27.866 17 24H15C15 28.9706 19.0294 33 24 33V31ZM17 24C17 20.134 20.134 17 24 17V15C19.0294 15 15 19.0294 15 24H17ZM24 17C27.866 17 31 20.134 31 24H33C33 19.0294 28.9706 15 24 15V17ZM36.0208 10.565L28.9497 17.636L30.364 19.0503L37.435 11.9792L36.0208 10.565ZM28.9497 30.364L36.0208 37.435L37.435 36.0208L30.364 28.9497L28.9497 30.364ZM19.0503 17.636L11.9792 10.565L10.565 11.9792L17.636 19.0503L19.0503 17.636ZM17.636 28.9497L10.565 36.0208L11.9792 37.435L19.0503 30.364L17.636 28.9497Z" fill="white"/>
</svg>
